# xmcd
#
# Track frame offsets:
#	150
#	18993
#	38721
#	70316
#	82849
#	102159
#	124046
#	154237
#
# Disc length: 2284 seconds
# Revision: 0
# Processed by: cddbd v1.5.2PL0 Copyright (c) Steve Scherf et al.
# Submitted via: dBpowerAMP V12.0
#
DISCID=5908ea08
DTITLE=Eric Burdon - Last Drive
DYEAR=1980
DGENRE=Blues
TTITLE0=The Last Drive
TTITLE1=Power Company
TTITLE2=Bird on the Beach
TTITLE3=The Rubbing out of Long Hair
TTITLE4=Atom-Most-Fear
TTITLE5=Dry
TTITLE6=Female Terrorist
TTITLE7=The Last Poet
EXTD=
EXTT0=
EXTT1=
EXTT2=
EXTT3=
EXTT4=
EXTT5=
EXTT6=
EXTT7=
PLAYORDER=
